<?xml version="1.0" encoding="utf-8"?>
<!-- Generator: Adobe Illustrator 26.3.1, SVG Export Plug-In . SVG Version: 6.00 Build 0)  -->
<svg version="1.1" id="Layer_2_00000078755985993304590020000001453789904815885205_"
	 xmlns="http://www.w3.org/2000/svg" xmlns:xlink="http://www.w3.org/1999/xlink" x="0px" y="0px" viewBox="0 0 116 127.8"
	 style="enable-background:new 0 0 116 127.8;" xml:space="preserve">
<style type="text/css">
	.st0{fill:#F9F9F9;}
	.st1{fill:#F8F8F8;}
	.st2{fill:#020202;}
	.st3{fill:#010101;}
</style>
<path d="M3.3,74.4c0-16.3,0.1-32.6-0.1-49c0-2.8,1.3-4.1,4.7-4.9C36.7,14,65.5,7.2,94.2,0.5c4.7-1.1,5.7-0.5,5.7,3.3
	c0,5.2,0.1,10.3,0,15.5c0,1.5,0.6,2,2.5,2c3.3-0.1,6.5,0,9.7,0c2.9-0.1,4,1,3.9,3.2c0,0.4,0,0.8,0,1.2c0,32.5,0,65.1,0,97.7
	c0,4.2-0.4,4.5-5.7,4.5c-34,0-67.9,0-101.9,0c-4.7,0-5.2-0.4-5.2-4.2C3.3,107.3,3.3,90.9,3.3,74.4L3.3,74.4z"/>
<path class="st0" d="M110.6,74.5c0,15.5,0,31,0.1,46.4c0,2-0.6,2.7-3.3,2.7c-31.9-0.1-63.7-0.1-95.6,0c-2.6,0-3.3-0.7-3.3-2.7
	c0.1-31,0.1-61.9,0-92.9c0-2,0.6-2.6,3.3-2.6c31.9,0.1,63.7,0.1,95.6,0c2.6,0,3.3,0.6,3.3,2.6C110.6,43.5,110.6,59,110.6,74.5
	L110.6,74.5z"/>
<path class="st1" d="M26.8,20.7c5.7-1.3,11.3-2.6,17-4c15.9-3.6,31.7-7.3,47.6-11.1c2.8-0.7,3.4-0.2,3.3,2c-0.3,3.8-0.1,7.6,0,11.5
	c0,1.5-0.4,2.2-2.5,2.2c-21.7-0.1-43.3,0-65.1,0L26.8,20.7L26.8,20.7z"/>
<path class="st2" d="M59.6,78.8c-13.5,0-26.8,0-40.3,0c-0.9,0-1.6,0-2.5,0c-1.5-0.1-2.6-0.8-2.6-2.1c-0.1-1.3,1-2,2.4-2.2
	c0.8-0.1,1.6-0.1,2.5-0.1c27.1,0,54.1,0,81.1,0c0.4,0,0.9,0,1.3,0c1.8,0,3.5,0.3,3.5,2.1c0,1.9-1.8,2.2-3.7,2.2c-11.6,0-23,0-34.6,0
	C64.4,78.8,62,78.8,59.6,78.8L59.6,78.8z"/>
<path d="M59.6,91.6c-13.5,0-26.8,0-40.3,0c-1,0-2.1,0-3.1-0.1c-1.4-0.1-2-0.8-2.1-1.9c-0.1-1.2,0.8-1.9,2.1-2.1
	c0.8-0.1,1.6-0.1,2.5-0.1c27.2,0,54.5,0,81.7,0c0.9,0,1.6-0.1,2.5,0.1c1.4,0.2,2.1,1,2.1,2.2c-0.1,1-0.8,1.7-2.1,1.9
	c-1,0.1-2.1,0.1-3.1,0.1C86.4,91.6,73.1,91.6,59.6,91.6L59.6,91.6z"/>
<path d="M59.6,104.3c-13.5,0-27.1,0-40.5,0c-1,0-1.9,0.1-2.8-0.1c-1.4-0.2-2.1-1-2.1-2.2c0.1-1,0.8-1.7,2.1-1.8
	c1.1-0.1,2.3-0.1,3.4-0.1c26.6,0,53.3,0,79.8,0c2.1,0,5.3-0.8,5.4,2c0.1,3-3.3,2.2-5.4,2.2C86.3,104.4,73,104.3,59.6,104.3
	L59.6,104.3z"/>
<path class="st3" d="M30.5,49c2.1-2.8,3.9-5.2,5.7-7.5c0.9-1.2,1.9-2.1,3.8-1.7c1.7,0.4,2.1,1.6,2.1,2.8c0,5.8,0,11.6,0,17.3
	c0,1.6-0.7,2.8-2.9,2.8c-2.1,0-2.9-1.2-2.9-2.8c0-2.9,0-5.7,0-8.8c-4.1,3.7-7.9,3.7-11.6,0c0,3.1,0,5.8,0,8.5c0,1.7-0.5,3.3-2.9,3.3
	s-3-1.6-3-3.2c0-5.5,0-11,0-16.6c0-1.5,0.3-2.8,2.4-3.1c2-0.4,2.9,0.7,3.7,1.8C26.7,44,28.4,46.3,30.5,49L30.5,49z"/>
<path class="st3" d="M74.2,49.3c0-2,0-4.1,0-6.1c0-1.7,0.5-3.3,2.9-3.3c2.4,0,3,1.5,3,3.2c0,5.5,0,11,0,16.5c0,1.5-0.2,2.8-2.3,3.2
	c-2.1,0.4-3-0.8-3.8-2.1c-1.6-2.5-3.1-5-5-7.9c-0.9,2.4-0.5,4.5-0.5,6.5c-0.1,1.7-0.3,3.5-3.1,3.4c-2.4-0.1-2.8-1.7-2.8-3.4
	c0-5.4,0-10.9,0-16.3c0-1.5,0.2-2.9,2.2-3.2c2.3-0.5,3.1,0.9,4.1,2.2c1.5,2.4,3,4.9,4.6,7.3L74.2,49.3L74.2,49.3z"/>
<path class="st3" d="M100.5,49.5c0,2,0.1,4,0,6c-0.2,4.4-3.8,7.5-8.8,7.5c-5,0-8.7-3-8.8-7.5c-0.1-4.1,0-8.3,0-12.5
	c0-1.7,0.6-3,2.8-3.1c2.6-0.1,3.1,1.5,3.1,3.2c0,4,0,7.9,0,12c0,1.7,0.3,3.2,3,3.1c2.4-0.1,2.7-1.6,2.7-3.1c0-3.9,0-7.7,0-11.7
	c0-1.7,0.3-3.5,3.1-3.5c2.4,0,2.9,1.7,2.9,3.4C100.5,45.2,100.5,47.3,100.5,49.5L100.5,49.5z"/>
<path class="st3" d="M52.2,62.9c-1,0-2.1,0-3.1,0c-2.7,0.1-3.9-0.9-3.9-3.1c0-5.7,0-11.4,0-17c0-2,1.2-3,3.7-3c2.4,0,4.8,0,7.2,0
	c1.9,0,3.5,0.6,3.6,2.3c0,1.8-1.6,2.4-3.7,2.4c-0.7,0-1.4,0.1-2.1,0c-2.1-0.2-3,0.3-3,2.2c0,1.9,0.8,2.7,3.1,2.4c0.1,0,0.2,0,0.3,0
	c2.2,0,5.2-0.3,5.2,2.3c0.1,2.8-2.9,2.5-5.3,2.4c-2,0-3.4-0.1-3.4,2.1c0,2.2,1,2.7,3.5,2.5c0.7-0.1,1.4,0,2.1,0
	c1.9,0.1,3.4,0.7,3.4,2.5c-0.1,1.6-1.5,2.1-3.2,2.2C54.9,62.9,53.5,62.8,52.2,62.9L52.2,62.9z"/>
</svg>
